<svg xmlns="http://www.w3.org/2000/svg" width="260" height="260" viewBox="0 0 260 260">
	<g transform="translate(-20, 0)">
		<path d="m273.336 124.488l-57.867-100.672c-2.102-3.64-5.985-6.325-10.188-6.325h-115.736c-4.204 0-8.088 2.685-10.19 6.325l-57.867 100.45c-2.102 3.641-2.102 8.236 0 11.877l57.867 99.847c2.102 3.64 5.986 5.501 10.19 5.501h115.735c4.203 0 8.087-1.805 10.188-5.446l57.867-100.01c2.104-3.639 2.104-7.907.001-11.547m-47.917 48.41c0 1.48-.891 2.849-2.174 3.59l-73.71 42.527c-1.282.74-2.888.74-4.17 0l-73.767-42.527c-1.282-.741-2.179-2.109-2.179-3.59v-85.055c0-1.481.884-2.849 2.167-3.59l73.707-42.527c1.282-.741 2.886-.741 4.168 0l73.772 42.527c1.283.741 2.186 2.109 2.186 3.59z" fill="#4b32c3"/>
	</g>
  <g transform="translate(60, 60)">
    <g transform="scale(4)">
      <path fill="#ffb13b" stroke="#000" stroke-width="2" d="M7.674 14.488a2.218 2.218 0 1 0 0 3.137h16.652a2.218 2.218 0 1 0 0-3.137Z"/>
      <path fill="#ffb13b" stroke="#000" stroke-width="2" d="M11.222 9.06A2.218 2.218 0 1 0 9 11.278l11.778 11.774A2.218 2.218 0 1 0 23 20.834Z"/>
      <path fill="#ffb13b" stroke="#000" stroke-width="2" d="M17.568 7.73a2.218 2.218 0 1 0-3.137 0v16.652a2.218 2.218 0 1 0 3.137 0Z"/>
      <path fill="#ffb13b" stroke="#000" stroke-width="2" d="M23 11.278a2.218 2.218 0 1 0-2.222-2.218L9 20.834a2.218 2.218 0 1 0 2.218 2.218Z"/>
      <path fill="#ffb13b" d="M7.674 14.488a2.218 2.218 0 1 0 0 3.137h16.652a2.218 2.218 0 1 0 0-3.137Z"/>
      <path fill="#ffb13b" d="M11.222 9.06A2.218 2.218 0 1 0 9 11.278l11.778 11.774A2.218 2.218 0 1 0 23 20.834Z"/>
      <path fill="#ffb13b" d="M17.568 7.73a2.218 2.218 0 1 0-3.137 0v16.652a2.218 2.218 0 1 0 3.137 0Z"/>
      <path fill="#ffb13b" d="M23 11.278a2.218 2.218 0 1 0-2.222-2.218L9 20.834a2.218 2.218 0 1 0 2.218 2.218Z"/>
      <path fill="#4b32c3" d="M2 16.056h28v9.894a4.035 4.035 0 0 1-4.106 4.106H6.106A4.035 4.035 0 0 1 2 25.95Z"/>
      <path fill="#fff" d="M6.2 23.045a3.628 3.628 0 1 1 6.2-2.565h-2.13a1.5 1.5 0 1 0-2.57 1.061a1.6 1.6 0 0 0 1.062.441a4.12 4.12 0 0 1 2.566 1.063a3.628 3.628 0 1 1-6.194 2.565h2.13a1.5 1.5 0 1 0 2.566-1.06a1.95 1.95 0 0 0-1.063-.44A4.47 4.47 0 0 1 6.2 23.045m13.451-6.193L17.085 29.24H14.96L12.4 16.852h2.12l1.5 7.255l1.5-7.255Zm3.629 5.131h3.628v3.628a3.628 3.628 0 1 1-7.257 0V20.48a3.628 3.628 0 0 1 7.257 0h-2.125a1.5 1.5 0 1 0-3.005 0v5.13a1.5 1.5 0 0 0 3.005 0v-1.5h-1.5v-2.127Z"/>
    </g>
  </g>
</svg>
